<?xml version="1.0" encoding="UTF-8" standalone="no"?>
<!-- Created with Inkscape (http://www.inkscape.org/) -->

<svg
   xmlns:dc="http://purl.org/dc/elements/1.1/"
   xmlns:cc="http://creativecommons.org/ns#"
   xmlns:rdf="http://www.w3.org/1999/02/22-rdf-syntax-ns#"
   xmlns:svg="http://www.w3.org/2000/svg"
   xmlns="http://www.w3.org/2000/svg"
   xmlns:sodipodi="http://sodipodi.sourceforge.net/DTD/sodipodi-0.dtd"
   xmlns:inkscape="http://www.inkscape.org/namespaces/inkscape"
   width="210mm"
   height="297mm"
   viewBox="0 0 210 297"
   version="1.1"
   id="svg1806"
   inkscape:version="0.92.2 (5c3e80d, 2017-08-06)"
   sodipodi:docname="chempiler_logo.svg"
   inkscape:export-filename="E:\git_repositories\Chempiler\chempiler_logo.png"
   inkscape:export-xdpi="300"
   inkscape:export-ydpi="300">
  <defs
     id="defs1800" />
  <sodipodi:namedview
     id="base"
     pagecolor="#ffffff"
     bordercolor="#666666"
     borderopacity="1.0"
     inkscape:pageopacity="0.0"
     inkscape:pageshadow="2"
     inkscape:zoom="0.7"
     inkscape:cx="103.86858"
     inkscape:cy="510.90543"
     inkscape:document-units="mm"
     inkscape:current-layer="layer1"
     showgrid="false"
     inkscape:window-width="3440"
     inkscape:window-height="1377"
     inkscape:window-x="1912"
     inkscape:window-y="-8"
     inkscape:window-maximized="1" />
  <metadata
     id="metadata1803">
    <rdf:RDF>
      <cc:Work
         rdf:about="">
        <dc:format>image/svg+xml</dc:format>
        <dc:type
           rdf:resource="http://purl.org/dc/dcmitype/StillImage" />
        <dc:title></dc:title>
      </cc:Work>
    </rdf:RDF>
  </metadata>
  <g
     inkscape:label="Layer 1"
     inkscape:groupmode="layer"
     id="layer1">
    <g
       id="g20038"
       transform="matrix(6.003366,0,0,6.0023361,-574.65639,-984.00715)"
       style="display:inline;stroke-width:1.1351881">
      <path
         inkscape:connector-curvature="0"
         id="path5119"
         style="fill:#000000;stroke:#000000;stroke-width:0.02003419;stroke-linecap:round;stroke-linejoin:round;stroke-miterlimit:10;stroke-dasharray:none;stroke-opacity:1"
         d="m 101.50412,194.96965 -1.35451,-0.9486 -1.844256,1.84425 0.948598,1.35451" />
      <path
         inkscape:connector-curvature="0"
         id="path5141"
         style="fill:#000000;stroke:#000000;stroke-width:0.02003419;stroke-linecap:round;stroke-linejoin:round;stroke-miterlimit:10;stroke-dasharray:none;stroke-opacity:1"
         d="m 98.450953,198.72434 -1.654534,-0.0353 -0.511802,2.5546 1.544231,0.60004" />
      <path
         inkscape:connector-curvature="0"
         id="path5143"
         style="fill:#000000;stroke:#000000;stroke-width:0.02003419;stroke-linecap:round;stroke-linejoin:round;stroke-miterlimit:10;stroke-dasharray:none;stroke-opacity:1"
         d="m 97.996507,203.54675 -1.39422,0.88683 0.997132,2.409 1.614825,-0.35738" />
      <path
         inkscape:connector-curvature="0"
         id="path5145"
         style="fill:#000000;stroke:#000000;stroke-width:0.02003419;stroke-linecap:round;stroke-linejoin:round;stroke-miterlimit:10;stroke-dasharray:none;stroke-opacity:1"
         d="m 100.29962,207.80441 -0.666227,1.51335 2.166337,1.45158 1.14273,-1.19568" />
      <path
         inkscape:connector-curvature="0"
         id="path5149"
         style="fill:#000000;stroke:#000000;stroke-width:0.02003419;stroke-linecap:round;stroke-linejoin:round;stroke-miterlimit:10;stroke-dasharray:none;stroke-opacity:1"
         d="m 113.12115,206.4852 1.61482,0.35738 0.99713,-2.409 -1.39422,-0.88683" />
      <path
         inkscape:connector-curvature="0"
         id="path5151"
         style="fill:#000000;stroke:#000000;stroke-width:0.02003419;stroke-linecap:round;stroke-linejoin:round;stroke-miterlimit:10;stroke-dasharray:none;stroke-opacity:1"
         d="m 109.39293,209.57366 1.14273,1.19568 2.16634,-1.45158 -0.66623,-1.51335" />
      <path
         sodipodi:nodetypes="cccc"
         inkscape:connector-curvature="0"
         id="path5153"
         style="fill:#000000;stroke:#000000;stroke-width:0.02003419;stroke-linecap:round;stroke-linejoin:round;stroke-miterlimit:10;stroke-dasharray:none;stroke-opacity:1"
         d="m 104.57493,210.06782 0.2912,1.62806 h 2.60313 l 0.28679,-1.62806" />
      <path
         inkscape:connector-curvature="0"
         id="path5167"
         style="fill:none;stroke:#000000;stroke-width:0.02003419;stroke-linecap:round;stroke-linejoin:round;stroke-miterlimit:10;stroke-dasharray:none;stroke-opacity:1"
         d="m 107.78247,192.75919 h 0.46983 c 0.28875,0 0.52285,-0.23401 0.52289,-0.52275 5e-5,-0.28875 -0.23399,-0.52286 -0.52273,-0.52291 h -4.16948 c -0.28874,0 -0.52284,0.23401 -0.52288,0.52275 -6e-5,0.28874 0.23399,0.52285 0.52273,0.52291 h 0.46999 v 4.16585 c -2.43684,0.79442 -3.93775,3.24245 -3.53573,5.77379 0.40202,2.53134 2.58456,4.39487 5.14762,4.39522 2.56306,3.5e-4 4.74612,-1.86256 5.14885,-4.39378 0.40272,-2.53123 -1.09439,-4.97968 -3.53105,-5.77478 z"
         sodipodi:nodetypes="cccccccccscscc" />
      <path
         sodipodi:nodetypes="cscsccssscc"
         inkscape:connector-curvature="0"
         id="path5169"
         style="fill:#000000;stroke:#000000;stroke-width:0.02003419;stroke-linecap:round;stroke-linejoin:round;stroke-miterlimit:10;stroke-dasharray:none;stroke-opacity:1"
         d="m 108.81016,196.21377 c 2.65729,1.24001 4.09623,4.15977 3.46088,7.02249 -0.63536,2.86271 -3.17438,4.8996 -6.10675,4.89904 -2.93238,-5.5e-4 -5.47062,-2.03843 -6.10487,-4.90139 -0.634254,-2.86296 0.80581,-5.78217 3.46357,-7.02116 l -0.88023,-1.88737 c -3.542417,1.65144 -5.461991,5.54269 -4.616543,9.35896 0.845448,3.81627 4.228873,6.53271 8.137673,6.53346 3.90879,7.5e-4 7.29326,-2.71439 8.14018,-6.53033 0.84691,-3.81594 -1.07116,-7.70793 -4.61328,-9.36084 z" />
      <path
         sodipodi:nodetypes="ccccc"
         inkscape:connector-curvature="0"
         id="path5175"
         style="fill:none;stroke:#000000;stroke-width:0.02003419;stroke-linecap:round;stroke-linejoin:round;stroke-miterlimit:10;stroke-dasharray:none;stroke-opacity:1"
         d="m 101.96593,203.96437 v 0 l 8.39872,8.1e-4 c -0.79167,1.59517 -2.4188,2.604 -4.19961,2.60386 -1.78081,-1.4e-4 -3.40775,-1.00935 -4.19911,-2.60467" />
      <path
         inkscape:connector-curvature="0"
         id="path7091"
         d="m 105.50151,207.03339 c -1.54369,-0.21209 -2.9331,-1.10739 -3.74164,-2.41103 -0.70154,-1.13113 -0.94752,-2.51864 -0.67397,-3.80176 0.15822,-0.74215 0.51083,-1.50446 0.9801,-2.11887 0.16849,-0.22061 0.60551,-0.66629 0.83566,-0.85221 0.40793,-0.32955 0.95857,-0.6462 1.43641,-0.82602 l 0.22749,-0.0856 v -2.1014 -2.10141 l -0.29248,-5.7e-4 c -0.40213,-7.9e-4 -0.55358,-0.0742 -0.65522,-0.31743 -0.0739,-0.17696 -0.0327,-0.3719 0.11063,-0.52277 0.14742,-0.15521 0.0141,-0.14717 2.44259,-0.14717 h 2.23208 l 0.11833,0.075 c 0.32866,0.20843 0.29496,0.68056 -0.0616,0.86343 -0.0784,0.0402 -0.15271,0.0495 -0.39648,0.0495 h -0.30002 v 2.10141 2.1014 l 0.22749,0.0856 c 2.41234,0.90807 3.7974,3.46372 3.23979,5.97791 -0.40549,1.82828 -1.79062,3.32057 -3.57384,3.85033 -0.51922,0.15424 -0.76443,0.18874 -1.40135,0.19713 -0.32173,0.004 -0.66101,-0.003 -0.75395,-0.0155 z m 1.12168,-0.4683 c 1.34369,-0.13561 2.59744,-0.85487 3.35472,-1.92456 0.15986,-0.22581 0.41091,-0.64137 0.41118,-0.68061 7e-5,-0.0107 -1.90226,-0.0195 -4.2274,-0.0195 -3.89867,0 -4.22627,0.003 -4.21126,0.0424 0.009,0.0233 0.0801,0.15082 0.15804,0.2833 0.36959,0.62799 0.84142,1.12528 1.45615,1.53473 0.89949,0.59912 1.99135,0.87194 3.05857,0.76422 z"
         style="fill:#000000;fill-opacity:1;stroke:#000000;stroke-width:0.07887479;stroke-linejoin:miter;stroke-miterlimit:4;stroke-dasharray:none" />
      <path
         inkscape:connector-curvature="0"
         id="path5147"
         style="fill:#000000;stroke:#000000;stroke-width:0.02003419;stroke-linecap:round;stroke-linejoin:round;stroke-miterlimit:10;stroke-dasharray:none;stroke-opacity:1"
         d="m 114.50655,201.84368 1.53981,-0.60004 -0.50739,-2.5546 -1.65453,0.0353" />
      <g
         id="g19987"
         style="stroke-width:1.1351881">
        <path
           d="m 113.08144,197.21981 0.9486,-1.35451 -1.84426,-1.84425 -1.35451,0.9486"
           style="fill:#000000;stroke:#000000;stroke-width:0.02003419;stroke-linecap:round;stroke-linejoin:round;stroke-miterlimit:10;stroke-dasharray:none;stroke-opacity:1"
           id="path5117"
           inkscape:connector-curvature="0" />
        <path
           d="m 127.31136,184.33539 0.9486,-1.35451 -1.84425,-1.84425 -1.35451,0.9486"
           style="fill:#ffd638;fill-opacity:1;stroke:#ffd535;stroke-width:0.02003419;stroke-linecap:round;stroke-linejoin:round;stroke-miterlimit:10;stroke-dasharray:none;stroke-opacity:1"
           id="path5117-3"
           inkscape:connector-curvature="0" />
        <path
           d="m 115.73404,182.08523 -1.35451,-0.9486 -1.84425,1.84425 0.9486,1.35451"
           style="fill:#ffd638;fill-opacity:1;stroke:#ffd535;stroke-width:0.02003419;stroke-linecap:round;stroke-linejoin:round;stroke-miterlimit:10;stroke-dasharray:none;stroke-opacity:1"
           id="path5119-4"
           inkscape:connector-curvature="0" />
        <path
           d="m 112.68088,185.83992 -1.65453,-0.0353 -0.51181,2.5546 1.54424,0.60004"
           style="fill:#ffd638;fill-opacity:1;stroke:#ffd535;stroke-width:0.02003419;stroke-linecap:round;stroke-linejoin:round;stroke-miterlimit:10;stroke-dasharray:none;stroke-opacity:1"
           id="path5141-2"
           inkscape:connector-curvature="0" />
        <path
           d="m 112.22643,190.66233 -1.39422,0.88683 0.99714,2.409 1.61482,-0.35738"
           style="fill:#ffd638;fill-opacity:1;stroke:#ffd535;stroke-width:0.02003419;stroke-linecap:round;stroke-linejoin:round;stroke-miterlimit:10;stroke-dasharray:none;stroke-opacity:1"
           id="path5143-3"
           inkscape:connector-curvature="0" />
        <path
           d="m 114.52955,194.91999 -0.66623,1.51335 2.16634,1.45158 1.14273,-1.19568"
           style="fill:#ffd638;fill-opacity:1;stroke:#ffd535;stroke-width:0.02003419;stroke-linecap:round;stroke-linejoin:round;stroke-miterlimit:10;stroke-dasharray:none;stroke-opacity:1"
           id="path5145-3"
           inkscape:connector-curvature="0" />
        <path
           d="m 128.73647,188.95926 1.53982,-0.60004 -0.50739,-2.5546 -1.65453,0.0353"
           style="fill:#ffd638;fill-opacity:1;stroke:#ffd535;stroke-width:0.02003419;stroke-linecap:round;stroke-linejoin:round;stroke-miterlimit:10;stroke-dasharray:none;stroke-opacity:1"
           id="path5147-3"
           inkscape:connector-curvature="0" />
        <path
           d="m 127.35107,193.60078 1.61483,0.35738 0.99713,-2.409 -1.39422,-0.88683"
           style="fill:#ffd638;fill-opacity:1;stroke:#ffd535;stroke-width:0.02003419;stroke-linecap:round;stroke-linejoin:round;stroke-miterlimit:10;stroke-dasharray:none;stroke-opacity:1"
           id="path5149-6"
           inkscape:connector-curvature="0" />
        <path
           d="m 123.62286,196.68924 1.14273,1.19568 2.16634,-1.45158 -0.66623,-1.51335"
           style="fill:#ffd638;fill-opacity:1;stroke:#ffd535;stroke-width:0.02003419;stroke-linecap:round;stroke-linejoin:round;stroke-miterlimit:10;stroke-dasharray:none;stroke-opacity:1"
           id="path5151-7"
           inkscape:connector-curvature="0" />
        <path
           d="m 118.80486,197.1834 0.2912,1.62806 h 2.60313 l 0.28679,-1.62806"
           style="fill:#ffd638;fill-opacity:1;stroke:#ffd535;stroke-width:0.02003419;stroke-linecap:round;stroke-linejoin:round;stroke-miterlimit:10;stroke-dasharray:none;stroke-opacity:1"
           id="path5153-6"
           inkscape:connector-curvature="0"
           sodipodi:nodetypes="cccc" />
        <path
           sodipodi:nodetypes="cccccccccscscc"
           d="m 122.01239,179.87477 h 0.46984 c 0.28874,0 0.52284,-0.23401 0.52289,-0.52275 5e-5,-0.28875 -0.23399,-0.52286 -0.52273,-0.52291 h -4.16948 c -0.28874,0 -0.52284,0.23401 -0.52288,0.52275 -6e-5,0.28874 0.23398,0.52285 0.52273,0.52291 h 0.46999 v 4.16585 c -2.43684,0.79442 -3.93775,3.24245 -3.53573,5.77379 0.40202,2.53134 2.58455,4.39487 5.14762,4.39522 2.56306,3.5e-4 4.74612,-1.86256 5.14884,-4.39378 0.40273,-2.53123 -1.09438,-4.97968 -3.53104,-5.77478 z"
           style="fill:none;stroke:#ffd536;stroke-width:0.56759405;stroke-linecap:round;stroke-linejoin:round;stroke-miterlimit:10;stroke-dasharray:none;stroke-opacity:1"
           id="path5167-5"
           inkscape:connector-curvature="0" />
        <path
           d="m 123.04009,183.32935 c 2.65729,1.24001 4.09623,4.15977 3.46088,7.02249 -0.63536,2.86271 -3.17438,4.8996 -6.10675,4.89904 -2.93238,-5.5e-4 -5.47062,-2.03843 -6.10487,-4.90139 -0.63426,-2.86296 0.8058,-5.78217 3.46357,-7.02116 l -0.88023,-1.88737 c -3.54242,1.65144 -5.46199,5.54269 -4.61655,9.35896 0.84545,3.81627 4.22888,6.53271 8.13767,6.53346 3.9088,7.5e-4 7.29327,-2.71439 8.14019,-6.53033 0.84691,-3.81594 -1.07117,-7.70793 -4.61328,-9.36084 z"
           style="fill:#ffd638;fill-opacity:1;stroke:#ffd535;stroke-width:0.02003419;stroke-linecap:round;stroke-linejoin:round;stroke-miterlimit:10;stroke-dasharray:none;stroke-opacity:1"
           id="path5169-9"
           inkscape:connector-curvature="0"
           sodipodi:nodetypes="cscsccssscc" />
        <text
           xml:space="preserve"
           style="font-style:normal;font-weight:normal;font-size:10.58333302px;line-height:1.25;font-family:sans-serif;letter-spacing:0px;word-spacing:0px;fill:#ffd536;fill-opacity:1;stroke:none;stroke-width:0.3003518"
           x="116.02617"
           y="190.47044"
           id="text19687"><tspan
             sodipodi:role="line"
             id="tspan19685"
             x="116.02617"
             y="190.47044"
             style="font-style:normal;font-variant:normal;font-weight:normal;font-stretch:normal;font-size:5.29166651px;font-family:Consolas;-inkscape-font-specification:'Consolas, Bold';font-variant-ligatures:normal;font-variant-caps:normal;font-variant-numeric:normal;font-feature-settings:normal;text-align:start;writing-mode:lr-tb;text-anchor:start;fill:#ffd536;fill-opacity:1;stroke-width:0.3003518">&lt;/&gt;</tspan></text>
      </g>
      <g
         id="g19956"
         style="stroke-width:1.1351881">
        <path
           d="m 112.94563,171.43964 0.9486,-1.35451 -1.84425,-1.84425 -1.35451,0.9486"
           style="fill:#3671a1;fill-opacity:1;stroke:#366e9c;stroke-width:0.02003419;stroke-linecap:round;stroke-linejoin:round;stroke-miterlimit:10;stroke-dasharray:none;stroke-opacity:1"
           id="path5117-4"
           inkscape:connector-curvature="0" />
        <path
           d="m 101.36831,169.18948 -1.35451,-0.9486 -1.844249,1.84425 0.948598,1.35451"
           style="fill:#3671a1;fill-opacity:1;stroke:#366e9c;stroke-width:0.02003419;stroke-linecap:round;stroke-linejoin:round;stroke-miterlimit:10;stroke-dasharray:none;stroke-opacity:1"
           id="path5119-8"
           inkscape:connector-curvature="0" />
        <path
           d="m 98.31515,172.94417 -1.654534,-0.0353 -0.511802,2.5546 1.544231,0.60004"
           style="fill:#3671a1;fill-opacity:1;stroke:#366e9c;stroke-width:0.02003419;stroke-linecap:round;stroke-linejoin:round;stroke-miterlimit:10;stroke-dasharray:none;stroke-opacity:1"
           id="path5141-9"
           inkscape:connector-curvature="0" />
        <path
           d="m 97.860704,177.76658 -1.39422,0.88683 0.997132,2.409 1.614825,-0.35738"
           style="fill:#3671a1;fill-opacity:1;stroke:#366e9c;stroke-width:0.02003419;stroke-linecap:round;stroke-linejoin:round;stroke-miterlimit:10;stroke-dasharray:none;stroke-opacity:1"
           id="path5143-4"
           inkscape:connector-curvature="0" />
        <path
           d="m 100.16382,182.02424 -0.66623,1.51335 2.16634,1.45158 1.14273,-1.19568"
           style="fill:#3671a1;fill-opacity:1;stroke:#366e9c;stroke-width:0.02003419;stroke-linecap:round;stroke-linejoin:round;stroke-miterlimit:10;stroke-dasharray:none;stroke-opacity:1"
           id="path5145-1"
           inkscape:connector-curvature="0" />
        <path
           d="m 114.37074,176.06351 1.53982,-0.60004 -0.50739,-2.5546 -1.65453,0.0353"
           style="fill:#3671a1;fill-opacity:1;stroke:#366e9c;stroke-width:0.02003419;stroke-linecap:round;stroke-linejoin:round;stroke-miterlimit:10;stroke-dasharray:none;stroke-opacity:1"
           id="path5147-9"
           inkscape:connector-curvature="0" />
        <path
           d="m 112.98534,180.70503 1.61483,0.35738 0.99713,-2.409 -1.39422,-0.88683"
           style="fill:#3671a1;fill-opacity:1;stroke:#366e9c;stroke-width:0.02003419;stroke-linecap:round;stroke-linejoin:round;stroke-miterlimit:10;stroke-dasharray:none;stroke-opacity:1"
           id="path5149-8"
           inkscape:connector-curvature="0" />
        <path
           d="m 109.25713,183.79349 1.14273,1.19568 2.16634,-1.45158 -0.66623,-1.51335"
           style="fill:#3671a1;fill-opacity:1;stroke:#366e9c;stroke-width:0.02003419;stroke-linecap:round;stroke-linejoin:round;stroke-miterlimit:10;stroke-dasharray:none;stroke-opacity:1"
           id="path5151-3"
           inkscape:connector-curvature="0" />
        <path
           d="m 104.43913,184.28765 0.2912,1.62806 h 2.60313 l 0.28679,-1.62806"
           style="fill:#3671a1;fill-opacity:1;stroke:#366e9c;stroke-width:0.02003419;stroke-linecap:round;stroke-linejoin:round;stroke-miterlimit:10;stroke-dasharray:none;stroke-opacity:1"
           id="path5153-7"
           inkscape:connector-curvature="0"
           sodipodi:nodetypes="cccc" />
        <path
           sodipodi:nodetypes="cccccccccscscc"
           d="m 107.64666,166.97902 h 0.46984 c 0.28874,0 0.52284,-0.23401 0.52289,-0.52275 5e-5,-0.28875 -0.23399,-0.52286 -0.52273,-0.52291 h -4.16948 c -0.28874,0 -0.52284,0.23401 -0.52288,0.52275 -6e-5,0.28874 0.23398,0.52285 0.52273,0.52291 h 0.46999 v 4.16585 c -2.43684,0.79442 -3.93775,3.24245 -3.53573,5.77379 0.40202,2.53134 2.58455,4.39487 5.14762,4.39522 2.56306,3.5e-4 4.74612,-1.86256 5.14884,-4.39378 0.40273,-2.53123 -1.09438,-4.97968 -3.53104,-5.77478 z"
           style="fill:none;stroke:#3671a2;stroke-width:0.56759405;stroke-linecap:round;stroke-linejoin:round;stroke-miterlimit:10;stroke-dasharray:none;stroke-opacity:1"
           id="path5167-4"
           inkscape:connector-curvature="0" />
        <path
           d="m 108.67436,170.4336 c 2.65729,1.24001 4.09623,4.15977 3.46088,7.02249 -0.63536,2.86271 -3.17438,4.8996 -6.10675,4.89904 -2.93238,-5.5e-4 -5.47062,-2.03843 -6.104874,-4.90139 -0.634253,-2.86296 0.805804,-5.78217 3.463574,-7.02116 l -0.88023,-1.88737 c -3.54242,1.65144 -5.461994,5.54269 -4.616546,9.35896 0.845448,3.81627 4.228876,6.53271 8.137666,6.53346 3.9088,7.5e-4 7.29327,-2.71439 8.14019,-6.53033 0.84691,-3.81594 -1.07117,-7.70793 -4.61328,-9.36084 z"
           style="fill:#3671a1;fill-opacity:1;stroke:#366e9c;stroke-width:0.02003419;stroke-linecap:round;stroke-linejoin:round;stroke-miterlimit:10;stroke-dasharray:none;stroke-opacity:1"
           id="path5169-3"
           inkscape:connector-curvature="0"
           sodipodi:nodetypes="cscsccssscc" />
        <g
           id="g19933"
           style="stroke:#3671a2;stroke-width:1.1351881;stroke-opacity:1">
          <path
             inkscape:connector-curvature="0"
             style="fill:none;stroke:#3671a2;stroke-width:0.56759405;stroke-linecap:round;stroke-linejoin:miter;stroke-miterlimit:2;stroke-dasharray:none;stroke-opacity:1"
             d="m 102.58701,174.15572 v 3.95791"
             id="path9782-1" />
          <path
             inkscape:connector-curvature="0"
             style="fill:none;stroke:#3671a2;stroke-width:0.56759405;stroke-linecap:round;stroke-linejoin:miter;stroke-miterlimit:2;stroke-dasharray:none;stroke-opacity:1"
             d="m 103.29451,174.56869 v 3.13193"
             id="path9784-0" />
          <path
             inkscape:connector-curvature="0"
             style="fill:none;stroke:#3671a2;stroke-width:0.56759405;stroke-linecap:round;stroke-linejoin:miter;stroke-miterlimit:2;stroke-dasharray:none;stroke-opacity:1"
             d="m 102.58701,178.11363 3.43403,1.97894"
             id="path9786-8" />
          <path
             inkscape:connector-curvature="0"
             style="fill:none;stroke:#3671a2;stroke-width:0.56759405;stroke-linecap:round;stroke-linejoin:miter;stroke-miterlimit:2;stroke-dasharray:none;stroke-opacity:1"
             d="m 106.02104,180.09257 3.45131,-1.97894"
             id="path9788-9" />
          <path
             inkscape:connector-curvature="0"
             style="fill:none;stroke:#3671a2;stroke-width:0.56759405;stroke-linecap:round;stroke-linejoin:miter;stroke-miterlimit:2;stroke-dasharray:none;stroke-opacity:1"
             d="m 106.02104,179.28378 2.72653,-1.58316"
             id="path9790-2" />
          <path
             inkscape:connector-curvature="0"
             style="fill:none;stroke:#3671a2;stroke-width:0.56759405;stroke-linecap:round;stroke-linejoin:miter;stroke-miterlimit:2;stroke-dasharray:none;stroke-opacity:1"
             d="m 109.47235,178.11363 v -3.95791"
             id="path9792-5" />
          <path
             inkscape:connector-curvature="0"
             style="fill:none;stroke:#3671a2;stroke-width:0.56759405;stroke-linecap:round;stroke-linejoin:miter;stroke-miterlimit:2;stroke-dasharray:none;stroke-opacity:1"
             d="m 109.47235,174.15572 -3.45131,-1.97897"
             id="path9794-04" />
          <path
             inkscape:connector-curvature="0"
             style="fill:none;stroke:#3671a2;stroke-width:0.56759405;stroke-linecap:round;stroke-linejoin:miter;stroke-miterlimit:2;stroke-dasharray:none;stroke-opacity:1"
             d="m 108.74757,174.56869 -2.72653,-1.56596"
             id="path9796-5" />
          <path
             inkscape:connector-curvature="0"
             style="fill:none;stroke:#3671a2;stroke-width:0.56759405;stroke-linecap:round;stroke-linejoin:miter;stroke-miterlimit:2;stroke-dasharray:none;stroke-opacity:1"
             d="m 106.02104,172.17675 -3.43403,1.97897"
             id="path9798-1" />
        </g>
      </g>
    </g>
  </g>
</svg>
